<?xml version="1.0" encoding="UTF-8"?>
<!-- Created with EazyDraw for Mac ( http://www.eazydraw.com/ ) -->

<svg
    version="1.1"
    xmlns:dc="http://purl.org/dc/elements/1.1/"
    xmlns:cc="http://creativecommons.org/ns#"
    xmlns:rdf="http://www.w3.org/1999/02/22-rdf-syntax-ns#"
    xmlns:svg="http://www.w3.org/2000/svg"
    xmlns:xlink="http://www.w3.org/1999/xlink"
    xmlns="http://www.w3.org/2000/svg"
    width="56.5124864609"
    height="51.5490722638"
    viewBox="0, 0, 56.5124864609, 51.5490722638"
    preserveAspectRatio="none"
    id="svg2">
   <defs
       id="defs_AE196B2E"/>
   <metadata
       id="metadata7">
      <rdf:RDF>
         <cc:Work
             rdf:about="">
            <dc:format>image/svg+xml</dc:format>
            <dc:type rdf:resource="http://purl.org/dc/dcmitype/StillImage"/>
            <dc:title></dc:title>
         </cc:Work>
      </rdf:RDF>
   </metadata>
   <g
       id="layer_Paper"
       style="fill:#000000;fill-opacity:1;stroke:#000000;stroke-opacity:1;fill-rule:nonzero;stroke-linecap:square;stroke-linejoin:miter;stroke-width:1;stroke-miterlimit:10">
      <path
          style="stroke-linecap:butt;stroke-miterlimit:4"
          id="73A5D62F"
          d="M27.8430488363,32.1863472638 C27.8430488363,32.8530139308 27.8430488363,33.5196805968 27.8430488363,34.1863472638 C22.8941488363,36.7078472638 18.1790488363,44.8452472638 16.8430488363,50.1863472638 C25.3854488363,51.3366472638 31.3006488363,51.3366472638 39.8430488363,50.1863472638
C39.1932488363,48.8866472638 39.6962488363,49.1863472638 37.8430488363,49.1863472638 C37.0413488363,43.3097472638 32.2664488363,36.0634472638 27.8430488363,32.1863472638 z M14.8590219533,48.8796895318 C14.8590219533,47.8796895318 14.8590219533,46.8796895318 14.8590219533,45.8796895318
C21.3458219533,37.8669895318 29.7765219533,26.0143895318 18.8590219533,17.8796895318 C18.8590219533,17.2130228658 18.8590219533,16.5463561988 18.8590219533,15.8796895318 C19.8590219533,15.8796895318 20.8590219533,15.8796895318 21.8590219533,15.8796895318
C22.1923552863,15.5463561988 22.5256886203,15.2130228658 22.8590219533,14.8796895318 C22.5256886203,14.5463561988 22.1923552863,14.2130228658 21.8590219533,13.8796895318 C14.3610219533,14.3786895318 10.2442219533,17.5010895318 12.8590219533,24.8796895318
C-2.992178046663,23.8150895318 10.3727219533,13.5567895318 17.2980219533,10.1041895318 C21.4849219533,8.016889531817 32.7703219533,8.897089531817 37.8590219533,8.879689531817 C37.8590219533,9.546356198817 37.8590219533,10.2130228658 37.8590219533,10.8796895318
C43.4932219533,14.4423895318 58.2057219533,24.3447895318 41.8590219533,24.8796895318 C41.8590219533,24.2130228658 41.8590219533,23.5463561988 41.8590219533,22.8796895318 C46.2530219533,16.4234895318 36.8807219533,14.0279895318 31.8590219533,13.8796895318
C31.8590219533,14.5463561988 31.8590219533,15.2130228658 31.8590219533,15.8796895318 C33.1923552863,15.8796895318 34.5256886203,15.8796895318 35.8590219533,15.8796895318 C35.2586219533,20.6690895318 31.5169219533,24.9448895318 32.0110219533,29.8048895318
C32.6985219533,36.5666895318 39.7036219533,42.4489895318 41.8590219533,48.8796895318 C42.5256886203,48.8796895318 43.1923552863,48.8796895318 43.8590219533,48.8796895318 C47.8093219533,43.4256895318 54.0280219533,39.8762895318 55.3906219533,32.8757895318
C56.3720219533,27.8340895318 56.2432219533,21.7877895318 54.6352219533,16.8943895318 C53.1464219533,12.3634895318 49.9140219533,9.599489531817 46.2795219533,6.753189531817 C33.3058219533,-3.407120468183 13.1141219533,-1.140020468183 3.913031953337,13.2191895318
C-3.472747046663,24.7454895318 1.558381953337,44.2143895318 14.8590219533,48.8796895318 z"/>
   </g>
</svg>
